HIERARCHY
ROOT Hips
{
  OFFSET 0.0273292 -0.436096 0.279869
  CHANNELS 6 Xposition Yposition Zposition Zrotation Xrotation Yrotation
  JOINT LHipJoint
  {
    OFFSET 0 0 0
    CHANNELS 6 Xposition Yposition Zposition Zrotation Xrotation Yrotation
    JOINT LeftUpLeg
    {
      OFFSET 1.36306 -1.79463 0
      CHANNELS 6 Xposition Yposition Zposition Zrotation Xrotation Yrotation
      JOINT LeftLeg
      {
        OFFSET 2.44807 -6.72613 0.000295034
        CHANNELS 6 Xposition Yposition Zposition Zrotation Xrotation Yrotation
        JOINT LeftFoot
        {
          OFFSET 2.5622 -7.03959 3.59965e-05
          CHANNELS 6 Xposition Yposition Zposition Zrotation Xrotation Yrotation
          JOINT LeftToeBase
          {
            OFFSET 0.15764 -0.43311 2.32255
            CHANNELS 6 Xposition Yposition Zposition Zrotation Xrotation Yrotation
            End Site
            {
              OFFSET 0 0 0
            }
          }
        }
      }
    }
  }
  JOINT RHipJoint
  {
    OFFSET 0 0 0
    CHANNELS 6 Xposition Yposition Zposition Zrotation Xrotation Yrotation
    JOINT RightUpLeg
    {
      OFFSET -1.30552 -1.79463 0
      CHANNELS 6 Xposition Yposition Zposition Zrotation Xrotation Yrotation
      JOINT RightLeg
      {
        OFFSET -2.54234 -6.98562 -0.000396375
        CHANNELS 6 Xposition Yposition Zposition Zrotation Xrotation Yrotation
        JOINT RightFoot
        {
          OFFSET -2.56826 -7.05623 -4.47982e-05
          CHANNELS 6 Xposition Yposition Zposition Zrotation Xrotation Yrotation
          JOINT RightToeBase
          {
            OFFSET -0.16473 -0.45259 2.36315
            CHANNELS 6 Xposition Yposition Zposition Zrotation Xrotation Yrotation
            End Site
            {
              OFFSET 0 0 0
            }
          }
        }
      }
    }
  }
  JOINT LowerBack
  {
    OFFSET 0 0 0
    CHANNELS 6 Xposition Yposition Zposition Zrotation Xrotation Yrotation
    JOINT Spine
    {
      OFFSET 0.0282699 2.03559 0
      CHANNELS 6 Xposition Yposition Zposition Zrotation Xrotation Yrotation
      JOINT Spine1
      {
        OFFSET 0.05672 2.04885 -0.04275
        CHANNELS 6 Xposition Yposition Zposition Zrotation Xrotation Yrotation
        JOINT Neck
        {
          OFFSET 0 0 0
          CHANNELS 6 Xposition Yposition Zposition Zrotation Xrotation Yrotation
          JOINT Neck1
          {
            OFFSET -0.05417 1.74624 0.17202
            CHANNELS 6 Xposition Yposition Zposition Zrotation Xrotation Yrotation
            JOINT Head
            {
              OFFSET 0.10407 1.76136 -0.12397
              CHANNELS 6 Xposition Yposition Zposition Zrotation Xrotation Yrotation
              End Site
              {
                OFFSET 0 0 0
              }
            }
          }
        }
        JOINT LeftShoulder
        {
          OFFSET 0 0 0
          CHANNELS 6 Xposition Yposition Zposition Zrotation Xrotation Yrotation
          JOINT LeftArm
          {
            OFFSET 3.36241 1.20089 -0.311211
            CHANNELS 6 Xposition Yposition Zposition Zrotation Xrotation Yrotation
            JOINT LeftForeArm
            {
              OFFSET 4.983 0.000197398 0.000166057
              CHANNELS 6 Xposition Yposition Zposition Zrotation Xrotation Yrotation
              JOINT LeftHand
              {
                OFFSET 3.48356 0 1.87849e-05
                CHANNELS 6 Xposition Yposition Zposition Zrotation Xrotation Yrotation
                JOINT LeftFingerBase
                {
                  OFFSET 0 0 0
                  CHANNELS 6 Xposition Yposition Zposition Zrotation Xrotation Yrotation
                  JOINT LeftHandIndex1
                  {
                    OFFSET 0.71526 0 0
                    CHANNELS 6 Xposition Yposition Zposition Zrotation Xrotation Yrotation
                    End Site
                    {
                      OFFSET 0 0 0
                    }
                  }
                }
                JOINT LThumb
                {
                  OFFSET 0 0 0
                  CHANNELS 6 Xposition Yposition Zposition Zrotation Xrotation Yrotation
                  End Site
                  {
                    OFFSET 0 0 0
                  }
                }
              }
            }
          }
        }
        JOINT RightShoulder
        {
          OFFSET 0 0 0
          CHANNELS 6 Xposition Yposition Zposition Zrotation Xrotation Yrotation
          JOINT RightArm
          {
            OFFSET -3.1366 1.37405 -0.404651
            CHANNELS 6 Xposition Yposition Zposition Zrotation Xrotation Yrotation
            JOINT RightForeArm
            {
              OFFSET -5.2419 -5.8808e-05 -0.000165864
              CHANNELS 6 Xposition Yposition Zposition Zrotation Xrotation Yrotation
              JOINT RightHand
              {
                OFFSET -3.44417 0 -2.00002e-05
                CHANNELS 6 Xposition Yposition Zposition Zrotation Xrotation Yrotation
                JOINT RightFingerBase
                {
                  OFFSET 0 0 0
                  CHANNELS 6 Xposition Yposition Zposition Zrotation Xrotation Yrotation
                  JOINT RightHandIndex1
                  {
                    OFFSET -0.62253 0 0
                    CHANNELS 6 Xposition Yposition Zposition Zrotation Xrotation Yrotation
                    End Site
                    {
                      OFFSET 0 0 0
                    }
                  }
                }
                JOINT RThumb
                {
                  OFFSET 0 0 0
                  CHANNELS 6 Xposition Yposition Zposition Zrotation Xrotation Yrotation
                  End Site
                  {
                    OFFSET 0 0 0
                  }
                }
              }
            }
          }
        }
      }
    }
  }
}
MOTION
Frames:	7
Frame Time:	0.00833333
-0.0224934 -0.0677792 1.4074 -0 -10.7894 -0 0 0 0 0 0 -0 1.36306 -1.79463 -7.51991e-08 10.2222 -40.8321 12.1029 2.4478 -6.72624 0.000235927 -111.599 62.8188 131.975 2.5622 -7.03959 -4.74062e-05 -24.8833 -44.4881 -33.8438 0.15764 -0.43311 2.32255 -7.15625e-15 3.18055e-15 -0 0 0 0 0 0 -0 -1.30552 -1.79463 -7.51991e-08 -11.7067 -39.664 -12.2496 -2.54221 -6.98567 0.000263023 113.361 61.9902 -133.4 -2.56826 -7.05623 -3.711e-05 27.3852 -44.9087 36.3847 -0.16473 -0.45259 2.36315 1.59028e-15 0 -3.18055e-15 0 0 0 0 0 -0 0.0282699 2.03559 -1.52172e-07 0 12.3976 -0 0.05672 2.04885 -0.04275 -0 -1.98785e-16 -0 0 0 0 -0 -1.98785e-16 -0 -0.0541701 1.74624 0.17202 0 16.4375 -0 0.10407 1.76136 -0.12397 0 0 -0 0 0 0 -0 -1.98785e-16 -0 3.36241 1.20089 -0.31121 -71.516 -15.218 42.5069 4.983 0.000116296 -0.000149107 -1.25966 -3.32386 -41.5626 3.48356 4.71139e-06 1.68199e-05 8.92164e-05 0 -0.000278886 0 0 0 -9.93923e-17 -3.18055e-15 -0 0.71526 0 0 6.16232e-15 0 -0 0 0 0 -9.93923e-17 -3.18055e-15 -0 0 0 0 -0 -1.98785e-16 -0 -3.1366 1.37405 -0.40465 71.5161 -15.2182 -42.5065 -5.2419 0.000119363 -0.000160474 1.25965 -3.32385 41.5623 -3.44417 3.90835e-06 1.55959e-05 -8.35527e-05 3.18055e-15 0.00026289 0 0 0 2.98177e-15 0 3.97569e-16 -0.62253 8.88178e-16 -2.22045e-16 -9.93923e-17 -3.18055e-15 -3.97569e-16 0 0 0 2.98177e-15 0 3.97569e-16 
-0.0220218 -0.504279 1.38422 -0 -10.4333 -0 0 0 0 0 0 -0 1.36306 -1.79463 -7.51991e-08 12.7592 -46.1394 13.2925 2.4478 -6.72624 0.000235927 -116.94 59.5441 138.135 2.5622 -7.03959 -4.74062e-05 -26.1998 -45.9863 -35.0295 0.15764 -0.43311 2.32255 0 1.59028e-15 -0 0 0 0 0 0 -0 -1.30552 -1.79463 -7.51991e-08 -14.4738 -44.7493 -13.7024 -2.54221 -6.98567 0.000263023 118.134 58.7618 -139.057 -2.56826 -7.05623 -3.711e-05 28.8543 -46.3435 37.4779 -0.16473 -0.45259 2.36315 3.97569e-15 0 -3.18055e-15 0 0 0 0 0 -0 0.0282699 2.03559 -1.52172e-07 0.023441 11.748 -0.115128 0.05672 2.04885 -0.04275 5.04727e-18 -5.96354e-16 -2.48481e-17 0 0 0 1.94126e-18 -5.96354e-16 -2.48481e-17 -0.0541701 1.74624 0.17202 1.1746e-17 15.0876 -2.57352e-17 0.10407 1.76136 -0.12397 -6.89673e-34 -3.18055e-15 -1.2424e-17 0 0 0 1.94126e-18 -5.96354e-16 -2.48481e-17 3.36241 1.20089 -0.31121 -71.2609 -15.0864 44.6301 4.983 0.000116296 -0.000149107 -1.25452 -3.31788 -41.4725 3.48356 4.71139e-06 1.68199e-05 8.72701e-05 0 -0.000272149 0 0 0 8.54774e-15 3.18055e-15 1.59028e-15 0.71526 -8.88178e-16 -2.22045e-16 2.5842e-15 -3.18055e-15 1.59028e-15 0 0 0 8.54774e-15 3.18055e-15 1.59028e-15 0 0 0 1.94126e-18 -5.96354e-16 -2.48481e-17 -3.1366 1.37405 -0.40465 71.4125 -15.0866 -44.6297 -5.2419 0.000119363 -0.000160474 1.31299 -3.38324 42.4758 -3.44417 3.90835e-06 1.55959e-05 -7.53545e-05 3.18055e-15 0.000293719 0 0 0 -5.36719e-15 0 1.19271e-15 -0.62253 -8.88178e-16 -2.22045e-16 -2.38542e-15 0 3.97569e-16 0 0 0 -5.36719e-15 0 1.19271e-15 
-0.0218323 -0.694679 1.32349 -0 -9.49139 -0 0 0 0 0 0 -0 1.36306 -1.79463 -7.51991e-08 13.8282 -48.0594 13.8207 2.4478 -6.72624 0.000235927 -118.937 58.2159 140.517 2.5622 -7.03959 -4.74062e-05 -26.9112 -46.7459 -35.6741 0.15764 -0.43311 2.32255 -3.97569e-15 1.59028e-15 -0 0 0 0 0 0 -0 -1.30552 -1.79463 -7.51991e-08 -15.684 -46.572 -14.3816 -2.54221 -6.98567 0.000263023 119.949 57.4675 -141.285 -2.56826 -7.05623 -3.711e-05 29.4795 -47.0903 38.0257 -0.16473 -0.45259 2.36315 -1.59028e-15 0 -0 0 0 0 0 0 -0 0.0282699 2.03559 -1.52172e-07 0.0317613 10.1705 -0.179871 0.05672 2.04885 -0.04275 -1.94126e-18 -1.98785e-16 -0 0 0 0 -1.94126e-18 -9.93923e-17 -2.48481e-17 -0.0541701 1.74624 0.17202 2.85338e-18 11.782 -2.53829e-17 0.10407 1.76136 -0.12397 1.2424e-17 3.18055e-15 -0 0 0 0 -1.94126e-18 -9.93923e-17 -2.48481e-17 3.36241 1.20089 -0.31121 -71.3426 -15.0062 45.3596 4.983 0.000116296 -0.000149107 -1.24094 -3.30218 -41.2349 3.48356 4.71139e-06 1.68199e-05 8.29883e-05 6.36111e-15 -0.00025384 0 0 0 3.97569e-15 3.18055e-15 -7.95139e-16 0.71526 8.88178e-16 0 5.96354e-15 0 -1.59028e-15 0 0 0 3.97569e-15 3.18055e-15 -7.95139e-16 0 0 0 -1.94126e-18 -9.93923e-17 -2.48481e-17 -3.1366 1.37405 -0.40465 71.4773 -15.0063 -45.3592 -5.2419 0.000119363 -0.000160474 1.33211 -3.4002 42.7773 -3.44417 3.90835e-06 1.55959e-05 -6.71315e-05 0 0.000309549 0 0 0 -7.95139e-16 -6.36111e-15 -1.19271e-15 -0.62253 0 -2.22045e-16 2.38542e-15 -3.18055e-15 -3.97569e-16 0 0 0 -7.95139e-16 -6.36111e-15 -1.19271e-15 
-0.0217496 -0.791402 1.23842 -0 -8.15315 -0 0 0 0 0 0 -0 1.36306 -1.79463 -7.51991e-08 14.3264 -48.9587 14.0847 2.4478 -6.72624 0.000235927 -119.978 57.7252 141.765 2.5622 -7.03959 -4.74062e-05 -27.1796 -47.024 -35.918 0.15764 -0.43311 2.32255 2.38542e-15 1.59028e-15 -3.18055e-15 0 0 0 0 0 -0 -1.30552 -1.79463 -7.51991e-08 -16.2355 -47.4293 -14.7004 -2.54221 -6.98567 0.000263023 120.924 56.9947 -142.485 -2.56826 -7.05623 -3.711e-05 29.485 -47.4105 38.1149 -0.16473 -0.45259 2.36315 3.53113e-31 3.18055e-15 -6.36111e-15 0 0 0 0 0 -0 0.0282699 2.03559 -1.52172e-07 0.0297733 8.22178 -0.208196 0.05672 2.04885 -0.04275 -4.36783e-18 1.2424e-17 2.48481e-17 0 0 0 -4.41636e-18 0 -0 -0.0541701 1.74624 0.17202 -1.53598e-18 7.6367 2.50704e-17 0.10407 1.76136 -0.12397 9.31803e-18 0 -0 0 0 0 -4.41636e-18 0 -0 3.36241 1.20089 -0.31121 -71.5804 -14.9744 45.7152 4.983 0.000116296 -0.000149107 -1.22176 -3.28004 -40.8991 3.48356 4.71139e-06 1.68199e-05 7.87065e-05 0 -0.000226816 0 0 0 -8.54774e-15 6.36111e-15 -7.95139e-16 0.71526 0 2.22045e-16 3.97569e-16 0 -0 0 0 0 -8.54774e-15 6.36111e-15 -7.95139e-16 0 0 0 -4.41636e-18 0 -0 -3.1366 1.37405 -0.40465 71.6311 -14.9746 -45.7148 -5.2419 0.000119363 -0.000160474 1.34149 -3.40926 42.9292 -3.44417 3.90835e-06 1.55959e-05 -6.07955e-05 -3.18055e-15 0.000315382 0 0 0 4.77083e-15 0 7.95139e-16 -0.62253 8.88178e-16 0 2.38542e-15 0 -0 0 0 0 4.77083e-15 0 7.95139e-16 
-0.0215986 -0.946872 1.14223 -0 -6.60804 -0 0 0 0 0 0 -0 1.36306 -1.79463 -7.51991e-08 15.4265 -51.1808 14.7694 2.4478 -6.72624 0.000235927 -121.481 56.7303 143.552 2.5622 -7.03959 -4.74062e-05 -27.2182 -47.0637 -35.9531 0.15764 -0.43311 2.32255 -7.15625e-15 -3.18055e-15 -3.18055e-15 0 0 0 0 0 -0 -1.30552 -1.79463 -7.51991e-08 -17.3259 -49.586 -15.3672 -2.54221 -6.98567 0.000263023 122.324 56.0269 -144.195 -2.56826 -7.05623 -3.711e-05 29.1406 -47.5528 37.8798 -0.16473 -0.45259 2.36315 3.97569e-15 1.59028e-15 -3.18055e-15 0 0 0 0 0 -0 0.0282699 2.03559 -1.52172e-07 0.0240927 6.45868 -0.214182 0.05672 2.04885 -0.04275 2.71776e-18 2.48481e-17 4.96962e-17 0 0 0 2.81482e-18 2.48481e-17 4.96962e-17 -0.0541701 1.74624 0.17202 -2.63805e-19 3.76779 4.98038e-17 0.10407 1.76136 -0.12397 -1.55301e-18 0 4.96962e-17 0 0 0 2.81482e-18 2.48481e-17 4.96962e-17 3.36241 1.20089 -0.31121 -71.7879 -14.9518 46.7116 4.983 0.000116296 -0.000149107 -1.19971 -3.2549 -40.5142 3.48356 4.71139e-06 1.68199e-05 7.67602e-05 -3.18055e-15 -0.000193933 0 0 0 -1.19271e-15 3.18055e-15 -0 0.71526 -8.88178e-16 -4.44089e-16 5.56597e-15 9.54166e-15 -7.95139e-16 0 0 0 -1.19271e-15 3.18055e-15 -0 0 0 0 2.81482e-18 2.48481e-17 4.96962e-17 -3.1366 1.37405 -0.40465 71.788 -14.952 -46.7113 -5.2419 0.000119363 -0.000160474 1.36783 -3.44159 43.3938 -3.44417 3.90835e-06 1.55959e-05 -5.82586e-05 -3.18055e-15 0.000316215 0 0 0 -5.1684e-15 6.36111e-15 1.19271e-15 -0.62253 -8.88178e-16 -4.44089e-16 -2.38542e-15 0 -0 0 0 0 -5.1684e-15 6.36111e-15 1.19271e-15 
-0.0213301 -1.20786 1.03012 -0 -4.75867 -0 0 0 0 0 0 -0 1.36306 -1.79463 -7.51991e-08 17.6076 -55.4569 16.1827 2.4478 -6.72624 0.000235927 -123.692 54.7796 146.201 2.5622 -7.03959 -4.74062e-05 -26.7837 -46.8519 -35.5145 0.15764 -0.43311 2.32255 -7.95139e-16 0 -0 0 0 0 0 0 -0 -1.30552 -1.79463 -7.51991e-08 -19.5591 -53.7238 -16.8655 -2.54221 -6.98567 0.000263023 124.382 54.126 -146.723 -2.56826 -7.05623 -3.711e-05 28.3047 -47.4987 37.1537 -0.16473 -0.45259 2.36315 7.95139e-16 0 3.18055e-15 0 0 0 0 0 -0 0.0282699 2.03559 -1.52172e-07 0.0185222 4.97396 -0.213627 0.05672 2.04885 -0.04275 -1.16475e-18 0 4.96962e-17 0 0 0 1.74713e-18 0 4.96962e-17 -0.0541701 1.74624 0.17202 -1.57363e-18 0.24759 4.96966e-17 0.10407 1.76136 -0.12397 -2.71776e-18 9.93923e-17 -2.48481e-17 0 0 0 1.74713e-18 0 4.96962e-17 3.36241 1.20089 -0.31121 -71.9276 -14.8744 48.6402 4.983 0.000116296 -0.000149107 -1.16829 -3.21931 -39.9657 3.48356 4.71139e-06 1.68199e-05 7.9506e-05 3.18055e-15 -0.000144021 0 0 0 3.18055e-15 -3.18055e-15 1.59028e-15 0.71526 -8.88178e-16 -2.22045e-16 2.38542e-15 0 1.59028e-15 0 0 0 3.18055e-15 -3.18055e-15 1.59028e-15 0 0 0 1.74713e-18 0 4.96962e-17 -3.1366 1.37405 -0.40465 71.9278 -14.8746 -48.6399 -5.2419 0.000119363 -0.000160474 1.42094 -3.49971 44.2877 -3.44417 3.90835e-06 1.55959e-05 -6.36336e-05 3.18055e-15 0.000308473 0 0 0 3.18055e-15 0 7.95139e-16 -0.62253 8.88178e-16 0 4.17448e-15 3.18055e-15 1.59028e-15 0 0 0 3.18055e-15 0 7.95139e-16 
-0.0210385 -1.49102 0.897811 -0 -2.5533 -0 0 0 0 0 0 -0 1.36306 -1.79463 -7.51991e-08 20.4961 -60.4896 18.2335 2.4478 -6.72624 0.000235927 -125.804 52.5984 148.77 2.5622 -7.03959 -4.74062e-05 -25.7297 -46.3143 -34.4508 0.15764 -0.43311 2.32255 7.15625e-15 -1.59028e-15 3.18055e-15 0 0 0 0 0 -0 -1.30552 -1.79463 -7.51991e-08 -22.6395 -58.5676 -19.1819 -2.54221 -6.98567 0.000263023 126.366 52.0015 -149.195 -2.56826 -7.05623 -3.711e-05 26.8918 -47.1541 35.897 -0.16473 -0.45259 2.36315 -2.38542e-15 -1.59028e-15 6.36111e-15 0 0 0 0 0 -0 0.0282699 2.03559 -1.52172e-07 0.0129768 3.48925 -0.213218 0.05672 2.04885 -0.04275 -3.88251e-19 0 -4.96962e-17 0 0 0 -3.10601e-18 0 -4.96962e-17 -0.0541701 1.74624 0.17202 -4.93208e-18 -3.44403 -4.97861e-17 0.10407 1.76136 -0.12397 -0 0 4.96962e-17 0 0 0 -3.10601e-18 0 -4.96962e-17 3.36241 1.20089 -0.31121 -72.0864 -14.7389 50.9466 4.983 0.000116296 -0.000149107 -1.12946 -3.17285 -39.2699 3.48356 4.71139e-06 1.68199e-05 8.55468e-05 9.54166e-15 -7.95359e-05 0 0 0 -7.95139e-15 3.18055e-15 -0 0.71526 0 -6.66134e-16 -3.97569e-15 0 -1.59028e-15 0 0 0 -7.95139e-15 3.18055e-15 -0 0 0 0 -3.10601e-18 0 -4.96962e-17 -3.1366 1.37405 -0.40465 72.0866 -14.7391 -50.9464 -5.2419 0.000119363 -0.000160474 1.48806 -3.56503 45.3668 -3.44417 3.90835e-06 1.55959e-05 -7.61508e-05 -3.18055e-15 0.00028339 0 0 0 1.98785e-15 0 7.95139e-16 -0.62253 0 -4.44089e-16 -1.59028e-15 -6.36111e-15 -1.59028e-15 0 0 0 1.98785e-15 0 7.95139e-16 
